<?xml version="1.0" encoding="UTF-8"?>
<svg version="1.1" viewBox="0 0 14 36" xmlns="http://www.w3.org/2000/svg">
 <style>#balloon1 .st0{fill:#ccc}#balloon1 .st1{fill:#ea602b}</style>
 <g transform="scale(.99963 1)">
  <path class="st0" d="m12.5 35.8c-4-1.8-5.9-7.5-5.9-17.3 0-0.2 0.2-0.4 0.4-0.4s0.4 0.2 0.4 0.4c0 9.5 1.7 14.9 5.4 16.6 0.2 0.1 0.3 0.3 0.2 0.5 0 0.1-0.2 0.2-0.3 0.2z" fill="#ececec"/>
  <path class="st1" d="m6.1 17.3-0.6 1.1h2.9l-0.6-1.1c2.3-0.9 6.1-4.4 6.2-9.1 0.1-4.8-2.7-7.9-6.6-8h-0.8c-3.9 0.1-6.7 3.2-6.6 8 0.1 4.7 3.9 8.2 6.1 9.1z" fill="#f0f"/>
 </g>
</svg>
